<svg width="32" height="32" viewBox="0 0 32 32" fill="none" xmlns="http://www.w3.org/2000/svg">
<path d="M28.1607 28.1615C29.3327 26.9908 29.3327 25.1042 29.3327 21.3335C29.3327 17.5628 29.3327 15.6762 28.1607 14.5055M28.1607 28.1615C26.99 29.3335 25.1033 29.3335 21.3327 29.3335H10.666C6.89535 29.3335 5.00868 29.3335 3.83802 28.1615M28.1607 14.5055C26.99 13.3335 25.1033 13.3335 21.3327 13.3335H10.666C6.89535 13.3335 5.00868 13.3335 3.83802 14.5055M3.83802 14.5055C2.66602 15.6762 2.66602 17.5628 2.66602 21.3335C2.66602 25.1042 2.66602 26.9908 3.83802 28.1615" stroke="#0D1D55" stroke-width="1.5"/>
<path d="M28 28.0001L4 14.6667M4.66667 28.0001L16 21.3334" stroke="#0D1D55" stroke-width="1.5" stroke-linecap="round"/>
<path d="M22.666 10.6667C24.8752 10.6667 26.666 8.87589 26.666 6.66675C26.666 4.45761 24.8752 2.66675 22.666 2.66675C20.4569 2.66675 18.666 4.45761 18.666 6.66675C18.666 8.87589 20.4569 10.6667 22.666 10.6667Z" stroke="#0D1D55" stroke-width="1.5"/>
<path d="M22.666 17.3334V10.6667" stroke="#0D1D55" stroke-width="1.5" stroke-linecap="round"/>
</svg>
