<svg width="16" height="28" viewBox="0 0 16 28" fill="none" xmlns="http://www.w3.org/2000/svg">
<path d="M3.14286 0C2.30932 0 1.50992 0.331122 0.920521 0.920522C0.331121 1.50992 0 2.30932 0 3.14286V24.2857C0 25.1193 0.331121 25.9187 0.920521 26.5081C1.50992 27.0975 2.30932 27.4286 3.14286 27.4286H12.8571C13.6907 27.4286 14.4901 27.0975 15.0795 26.5081C15.6689 25.9187 16 25.1193 16 24.2857V3.14286C16 2.30932 15.6689 1.50992 15.0795 0.920522C14.4901 0.331122 13.6907 0 12.8571 0H3.14286ZM1.71429 3.14286C1.71429 2.35429 2.35429 1.71429 3.14286 1.71429H12.8571C13.6457 1.71429 14.2857 2.35429 14.2857 3.14286V24.2857C14.2857 25.0743 13.6457 25.7143 12.8571 25.7143H3.14286C2.35429 25.7143 1.71429 25.0743 1.71429 24.2857V3.14286ZM6 21.7143C5.77267 21.7143 5.55465 21.8046 5.39391 21.9653C5.23316 22.1261 5.14286 22.3441 5.14286 22.5714C5.14286 22.7988 5.23316 23.0168 5.39391 23.1775C5.55465 23.3383 5.77267 23.4286 6 23.4286H10C10.2273 23.4286 10.4453 23.3383 10.6061 23.1775C10.7668 23.0168 10.8571 22.7988 10.8571 22.5714C10.8571 22.3441 10.7668 22.1261 10.6061 21.9653C10.4453 21.8046 10.2273 21.7143 10 21.7143H6Z" fill="#0D1D55"/>
</svg>
