<svg width="24" height="19" viewBox="0 0 24 19" fill="none" xmlns="http://www.w3.org/2000/svg">
<path d="M0.39797 8.07094C0.14315 8.32584 0 8.67151 0 9.03193C0 9.39236 0.14315 9.73803 0.39797 9.99292L8.08725 17.6822C8.21264 17.812 8.36262 17.9156 8.52846 17.9868C8.69429 18.0581 8.87265 18.0955 9.05313 18.0971C9.23361 18.0987 9.4126 18.0643 9.57965 17.9959C9.74669 17.9276 9.89846 17.8267 10.0261 17.6991C10.1537 17.5714 10.2546 17.4197 10.323 17.2526C10.3913 17.0856 10.4257 16.9066 10.4241 16.7261C10.4226 16.5456 10.3851 16.3673 10.3138 16.2014C10.2426 16.0356 10.1391 15.8856 10.0092 15.7602L4.64019 10.3912L22.6407 10.3912C23.0012 10.3912 23.347 10.248 23.6019 9.99307C23.8568 9.73816 24 9.39243 24 9.03193C24 8.67144 23.8568 8.32571 23.6019 8.0708C23.347 7.81589 23.0012 7.67268 22.6407 7.67268L4.64019 7.67268L10.0092 2.30364C10.2568 2.04728 10.3938 1.70394 10.3907 1.34755C10.3876 0.991155 10.2447 0.650236 9.99267 0.39822C9.74066 0.146204 9.39974 0.00325169 9.04335 0.000154745C8.68696 -0.0029422 8.34361 0.134064 8.08725 0.381663L0.39797 8.07094Z" fill="#F18E1A"/>
</svg>
