<svg width="19" height="19" viewBox="0 0 19 19" fill="none" xmlns="http://www.w3.org/2000/svg">
<path fill-rule="evenodd" clip-rule="evenodd" d="M4.58294 12.9048C3.33596 11.2971 2.74827 9.27482 2.93943 7.24925C3.1306 5.22367 4.08625 3.34701 5.61198 2.00104C7.13771 0.655069 9.1189 -0.0590965 11.1525 0.00383158C13.1861 0.0667597 15.1193 0.902055 16.5589 2.33978C17.9998 3.77851 18.8378 5.7125 18.9022 7.74765C18.9667 9.78279 18.2527 11.7659 16.9057 13.2929C15.5588 14.8199 13.6802 15.7758 11.653 15.9659C9.62569 16.1559 7.60223 15.5658 5.99494 14.3158L5.95194 14.3608L1.70994 18.6038C1.61703 18.6967 1.50673 18.7704 1.38533 18.8207C1.26394 18.871 1.13383 18.8968 1.00244 18.8968C0.871042 18.8968 0.740934 18.871 0.619541 18.8207C0.498148 18.7704 0.387848 18.6967 0.294937 18.6038C0.202026 18.5109 0.128328 18.4006 0.0780449 18.2792C0.0277615 18.1578 0.00188065 18.0277 0.00188065 17.8963C0.00188065 17.7649 0.0277615 17.6348 0.0780449 17.5134C0.128328 17.392 0.202026 17.2817 0.294937 17.1888L4.53794 12.9468C4.55255 12.9324 4.56755 12.9184 4.58294 12.9048ZM6.65894 3.75478C6.09434 4.31026 5.6453 4.97203 5.33774 5.70192C5.03017 6.43181 4.87016 7.21537 4.86694 8.0074C4.86371 8.79944 5.01734 9.58428 5.31895 10.3166C5.62056 11.049 6.06419 11.7144 6.62425 12.2745C7.18431 12.8345 7.84971 13.2782 8.58208 13.5798C9.31444 13.8814 10.0993 14.035 10.8913 14.0318C11.6834 14.0286 12.4669 13.8686 13.1968 13.561C13.9267 13.2534 14.5885 12.8044 15.1439 12.2398C16.254 11.1115 16.8733 9.59023 16.8668 8.0074C16.8604 6.42458 16.2288 4.90843 15.1095 3.78919C13.9903 2.66996 12.4741 2.03833 10.8913 2.03188C9.3085 2.02544 7.78725 2.6447 6.65894 3.75478Z" fill="#FAFAFA"/>
</svg>
